<?xml version="1.0" encoding="UTF-8" standalone="no"?>
<!DOCTYPE svg PUBLIC "-//W3C//DTD SVG 1.1//EN"
 "http://www.w3.org/Graphics/SVG/1.1/DTD/svg11.dtd">
<!-- Generated by graphviz version 14.1.0 (20251206.1807)
 -->
<!-- Title: NetRush Pages: 1 -->
<svg width="2144pt" height="704pt"
 viewBox="0.00 0.00 2144.00 704.00" xmlns="http://www.w3.org/2000/svg" xmlns:xlink="http://www.w3.org/1999/xlink">
<g id="graph0" class="graph" transform="scale(1 1) rotate(0) translate(4 700)">
<title>NetRush</title>
<polygon fill="white" stroke="none" points="-4,4 -4,-700 2140.25,-700 2140.25,4 -4,4"/>
<g id="clust1" class="cluster">
<title>cluster_client</title>
<polygon fill="none" stroke="blue" stroke-dasharray="5,2" points="8,-408 8,-688 2117.75,-688 2117.75,-408 8,-408"/>
<text xml:space="preserve" text-anchor="middle" x="1062.88" y="-666.9" font-family="Helvetica,sans-Serif" font-weight="bold" font-size="18.00">Client FSM</text>
</g>
<g id="clust2" class="cluster">
<title>cluster_server</title>
<polygon fill="none" stroke="green" stroke-dasharray="5,2" points="519.83,-8 519.83,-368 2128.25,-368 2128.25,-8 519.83,-8"/>
<text xml:space="preserve" text-anchor="middle" x="1324.04" y="-346.9" font-family="Helvetica,sans-Serif" font-weight="bold" font-size="18.00">Server FSM</text>
</g>
<!-- IDLE -->
<g id="node1" class="node">
<title>IDLE</title>
<ellipse fill="lightblue" stroke="black" cx="43" cy="-554" rx="27" ry="18"/>
<text xml:space="preserve" text-anchor="middle" x="43" y="-550.12" font-family="Times New Roman,serif" font-size="10.00">Idle</text>
</g>
<!-- INIT -->
<g id="node2" class="node">
<title>INIT</title>
<path fill="aliceblue" stroke="black" d="M245,-572C245,-572 213.25,-572 213.25,-572 207.25,-572 201.25,-566 201.25,-560 201.25,-560 201.25,-548 201.25,-548 201.25,-542 207.25,-536 213.25,-536 213.25,-536 245,-536 245,-536 251,-536 257,-542 257,-548 257,-548 257,-560 257,-560 257,-566 251,-572 245,-572"/>
<text xml:space="preserve" text-anchor="middle" x="229.12" y="-550.12" font-family="Times New Roman,serif" font-size="10.00">INIT Sent</text>
</g>
<!-- IDLE&#45;&gt;INIT -->
<g id="edge1" class="edge">
<title>IDLE&#45;&gt;INIT</title>
<path fill="none" stroke="black" d="M70.38,-554C101.56,-554 153.71,-554 189.45,-554"/>
<polygon fill="black" stroke="black" points="189.38,-557.5 199.38,-554 189.38,-550.5 189.38,-557.5"/>
<text xml:space="preserve" text-anchor="middle" x="135.62" y="-557.2" font-family="Times New Roman,serif" font-size="14.00">Join Game</text>
</g>
<!-- WAIT_ACK -->
<g id="node3" class="node">
<title>WAIT_ACK</title>
<path fill="lightyellow" stroke="black" d="M584.88,-454C584.88,-454 535.88,-454 535.88,-454 529.88,-454 523.88,-448 523.88,-442 523.88,-442 523.88,-430 523.88,-430 523.88,-424 529.88,-418 535.88,-418 535.88,-418 584.88,-418 584.88,-418 590.88,-418 596.88,-424 596.88,-430 596.88,-430 596.88,-442 596.88,-442 596.88,-448 590.88,-454 584.88,-454"/>
<text xml:space="preserve" text-anchor="middle" x="560.38" y="-432.12" font-family="Times New Roman,serif" font-size="10.00">Waiting ACK</text>
</g>
<!-- INIT&#45;&gt;WAIT_ACK -->
<g id="edge2" class="edge">
<title>INIT&#45;&gt;WAIT_ACK</title>
<path fill="none" stroke="black" d="M237.94,-535.59C247.64,-515.21 266.25,-483.17 293,-467.5 361.27,-427.5 456.26,-426.72 512.43,-430.72"/>
<polygon fill="black" stroke="black" points="512.04,-434.2 522.29,-431.51 512.6,-427.22 512.04,-434.2"/>
<text xml:space="preserve" text-anchor="middle" x="360.5" y="-470.7" font-family="Times New Roman,serif" font-size="14.00">Send INIT</text>
</g>
<!-- LISTEN -->
<g id="node9" class="node">
<title>LISTEN</title>
<ellipse fill="lightgreen" stroke="black" cx="560.38" cy="-313" rx="32.54" ry="18"/>
<text xml:space="preserve" text-anchor="middle" x="560.38" y="-309.12" font-family="Times New Roman,serif" font-size="10.00">Listening</text>
</g>
<!-- INIT&#45;&gt;LISTEN -->
<g id="edge20" class="edge">
<title>INIT&#45;&gt;LISTEN</title>
<path fill="none" stroke="purple" d="M232.61,-535.58C237.88,-503.58 253.16,-437.59 293,-400.5 355.83,-342.01 458.5,-322.58 516.31,-316.15"/>
<polygon fill="purple" stroke="purple" points="516.49,-319.65 526.08,-315.15 515.78,-312.69 516.49,-319.65"/>
<text xml:space="preserve" text-anchor="middle" x="360.5" y="-403.7" font-family="Times New Roman,serif" font-size="14.00">INIT</text>
</g>
<!-- WAIT_ACK&#45;&gt;INIT -->
<g id="edge3" class="edge">
<title>WAIT_ACK&#45;&gt;INIT</title>
<path fill="none" stroke="black" stroke-dasharray="5,2" d="M523.52,-452.43C497.32,-464.14 460.8,-479.9 428,-492 373.16,-512.22 308.29,-531.73 268.17,-543.3"/>
<polygon fill="black" stroke="black" points="267.4,-539.88 258.75,-546 269.33,-546.61 267.4,-539.88"/>
<text xml:space="preserve" text-anchor="middle" x="360.5" y="-538.16" font-family="Times New Roman,serif" font-size="14.00">Retry INIT every 500ms</text>
</g>
<!-- SYNC -->
<g id="node4" class="node">
<title>SYNC</title>
<path fill="lightgreen" stroke="black" d="M1073.62,-492C1073.62,-492 1025.38,-492 1025.38,-492 1019.38,-492 1013.38,-486 1013.38,-480 1013.38,-480 1013.38,-468 1013.38,-468 1013.38,-462 1019.38,-456 1025.38,-456 1025.38,-456 1073.62,-456 1073.62,-456 1079.62,-456 1085.62,-462 1085.62,-468 1085.62,-468 1085.62,-480 1085.62,-480 1085.62,-486 1079.62,-492 1073.62,-492"/>
<text xml:space="preserve" text-anchor="middle" x="1049.5" y="-470.12" font-family="Times New Roman,serif" font-size="10.00">Synchronized</text>
</g>
<!-- WAIT_ACK&#45;&gt;SYNC -->
<g id="edge4" class="edge">
<title>WAIT_ACK&#45;&gt;SYNC</title>
<path fill="none" stroke="black" d="M597.19,-438.79C683.87,-445.56 904.87,-462.8 1001.77,-470.35"/>
<polygon fill="black" stroke="black" points="1001.21,-473.82 1011.45,-471.11 1001.75,-466.84 1001.21,-473.82"/>
<text xml:space="preserve" text-anchor="middle" x="834.12" y="-470.83" font-family="Times New Roman,serif" font-size="14.00">INIT_ACK</text>
</g>
<!-- SYNC&#45;&gt;INIT -->
<g id="edge11" class="edge">
<title>SYNC&#45;&gt;INIT</title>
<path fill="none" stroke="black" d="M1013.25,-487.14C1001.39,-491.14 988,-495.21 975.5,-498 736.24,-551.43 672.69,-550.08 428,-565 368.11,-568.65 352.78,-570.19 293,-565 284.97,-564.3 276.43,-563.11 268.31,-561.77"/>
<polygon fill="black" stroke="black" points="269.17,-558.37 258.71,-560.06 267.95,-565.26 269.17,-558.37"/>
<text xml:space="preserve" text-anchor="middle" x="560.38" y="-565.85" font-family="Times New Roman,serif" font-size="14.00">Disconnect / Failure → Retry INIT</text>
</g>
<!-- PLAY -->
<g id="node5" class="node">
<title>PLAY</title>
<path fill="orange" stroke="black" d="M1371.88,-492C1371.88,-492 1341.88,-492 1341.88,-492 1335.88,-492 1329.88,-486 1329.88,-480 1329.88,-480 1329.88,-468 1329.88,-468 1329.88,-462 1335.88,-456 1341.88,-456 1341.88,-456 1371.88,-456 1371.88,-456 1377.88,-456 1383.88,-462 1383.88,-468 1383.88,-468 1383.88,-480 1383.88,-480 1383.88,-486 1377.88,-492 1371.88,-492"/>
<text xml:space="preserve" text-anchor="middle" x="1356.88" y="-470.12" font-family="Times New Roman,serif" font-size="10.00">Playing</text>
</g>
<!-- SYNC&#45;&gt;PLAY -->
<g id="edge5" class="edge">
<title>SYNC&#45;&gt;PLAY</title>
<path fill="none" stroke="black" d="M1085.83,-474C1143.85,-474 1258.79,-474 1318.26,-474"/>
<polygon fill="black" stroke="black" points="1318.22,-477.5 1328.22,-474 1318.22,-470.5 1318.22,-477.5"/>
<text xml:space="preserve" text-anchor="middle" x="1201.5" y="-477.2" font-family="Times New Roman,serif" font-size="14.00">Start Play</text>
</g>
<!-- PLAY&#45;&gt;INIT -->
<g id="edge12" class="edge">
<title>PLAY&#45;&gt;INIT</title>
<path fill="none" stroke="black" stroke-dasharray="5,2" d="M1329.56,-486.55C1315.09,-492.97 1296.63,-500.39 1279.5,-505 927.48,-599.77 828.36,-604.71 464,-593 387.88,-590.55 366.95,-600.22 293,-582 284.53,-579.91 275.78,-576.74 267.59,-573.27"/>
<polygon fill="black" stroke="black" points="269.16,-570.14 258.61,-569.22 266.29,-576.52 269.16,-570.14"/>
<text xml:space="preserve" text-anchor="middle" x="834.12" y="-600.7" font-family="Times New Roman,serif" font-size="14.00">Server Disconnect / Network Failure → Retry INIT</text>
</g>
<!-- EVENT -->
<g id="node6" class="node">
<title>EVENT</title>
<path fill="pink" stroke="black" d="M1650.5,-501C1650.5,-501 1592.5,-501 1592.5,-501 1586.5,-501 1580.5,-495 1580.5,-489 1580.5,-489 1580.5,-477 1580.5,-477 1580.5,-471 1586.5,-465 1592.5,-465 1592.5,-465 1650.5,-465 1650.5,-465 1656.5,-465 1662.5,-471 1662.5,-477 1662.5,-477 1662.5,-489 1662.5,-489 1662.5,-495 1656.5,-501 1650.5,-501"/>
<text xml:space="preserve" text-anchor="middle" x="1621.5" y="-484.75" font-family="Times New Roman,serif" font-size="10.00">Critical EVENT</text>
<text xml:space="preserve" text-anchor="middle" x="1621.5" y="-473.5" font-family="Times New Roman,serif" font-size="10.00">Awaiting ACK</text>
</g>
<!-- PLAY&#45;&gt;EVENT -->
<g id="edge6" class="edge">
<title>PLAY&#45;&gt;EVENT</title>
<path fill="none" stroke="black" d="M1384.35,-471.19C1399.03,-469.77 1417.63,-468.21 1434.25,-467.5 1479.21,-465.59 1490.68,-463.45 1535.5,-467.5 1546.37,-468.48 1557.92,-470.16 1568.89,-472.05"/>
<polygon fill="black" stroke="black" points="1568.11,-475.47 1578.57,-473.82 1569.36,-468.58 1568.11,-475.47"/>
<text xml:space="preserve" text-anchor="middle" x="1484.88" y="-470.7" font-family="Times New Roman,serif" font-size="14.00">Send EVENT</text>
</g>
<!-- TERM -->
<g id="node8" class="node">
<title>TERM</title>
<ellipse fill="red" stroke="black" cx="1621.5" cy="-610" rx="36.54" ry="36.54"/>
<ellipse fill="none" stroke="black" cx="1621.5" cy="-610" rx="40.54" ry="40.54"/>
<text xml:space="preserve" text-anchor="middle" x="1621.5" y="-606.12" font-family="Times New Roman,serif" font-size="10.00">Terminated</text>
</g>
<!-- PLAY&#45;&gt;TERM -->
<g id="edge10" class="edge">
<title>PLAY&#45;&gt;TERM</title>
<path fill="none" stroke="black" d="M1383.04,-492.29C1397.63,-502.51 1416.56,-515.14 1434.25,-525 1480.08,-550.54 1534.99,-574.89 1573.26,-590.93"/>
<polygon fill="black" stroke="black" points="1571.62,-594.04 1582.2,-594.65 1574.31,-587.57 1571.62,-594.04"/>
<text xml:space="preserve" text-anchor="middle" x="1484.88" y="-577.26" font-family="Times New Roman,serif" font-size="14.00">Exit</text>
</g>
<!-- BROADCAST -->
<g id="node12" class="node">
<title>BROADCAST</title>
<path fill="orange" stroke="black" d="M1659.5,-252C1659.5,-252 1583.5,-252 1583.5,-252 1577.5,-252 1571.5,-246 1571.5,-240 1571.5,-240 1571.5,-228 1571.5,-228 1571.5,-222 1577.5,-216 1583.5,-216 1583.5,-216 1659.5,-216 1659.5,-216 1665.5,-216 1671.5,-222 1671.5,-228 1671.5,-228 1671.5,-240 1671.5,-240 1671.5,-246 1665.5,-252 1659.5,-252"/>
<text xml:space="preserve" text-anchor="middle" x="1621.5" y="-230.12" font-family="Times New Roman,serif" font-size="10.00">Broadcast Snapshots</text>
</g>
<!-- PLAY&#45;&gt;BROADCAST -->
<g id="edge22" class="edge">
<title>PLAY&#45;&gt;BROADCAST</title>
<path fill="none" stroke="orange" stroke-width="1.5" stroke-dasharray="5,2" d="M1383.78,-455.61C1419.49,-429.76 1485.11,-380.41 1535.5,-332 1558.67,-309.74 1582.41,-281.86 1598.89,-261.53"/>
<polygon fill="orange" stroke="orange" stroke-width="1.5" points="1601.42,-263.98 1604.95,-253.99 1595.96,-259.6 1601.42,-263.98"/>
<text xml:space="preserve" text-anchor="middle" x="1484.88" y="-418.98" font-family="Times New Roman,serif" font-size="14.00">DATA (unreliable)</text>
</g>
<!-- EVENT&#45;&gt;PLAY -->
<g id="edge9" class="edge">
<title>EVENT&#45;&gt;PLAY</title>
<path fill="none" stroke="green" d="M1580.04,-488.76C1542.23,-493.24 1484.25,-497.81 1434.25,-492 1421.3,-490.49 1407.36,-487.6 1394.98,-484.56"/>
<polygon fill="green" stroke="green" points="1396.14,-481.25 1385.58,-482.15 1394.4,-488.03 1396.14,-481.25"/>
<text xml:space="preserve" text-anchor="middle" x="1484.88" y="-497.94" font-family="Times New Roman,serif" font-size="14.00">ACK Received</text>
</g>
<!-- RETRY -->
<g id="node7" class="node">
<title>RETRY</title>
<path fill="salmon" stroke="black" d="M2097.75,-611C2097.75,-611 2048,-611 2048,-611 2042,-611 2036,-605 2036,-599 2036,-599 2036,-587 2036,-587 2036,-581 2042,-575 2048,-575 2048,-575 2097.75,-575 2097.75,-575 2103.75,-575 2109.75,-581 2109.75,-587 2109.75,-587 2109.75,-599 2109.75,-599 2109.75,-605 2103.75,-611 2097.75,-611"/>
<text xml:space="preserve" text-anchor="middle" x="2072.88" y="-589.12" font-family="Times New Roman,serif" font-size="10.00">Retry EVENT</text>
</g>
<!-- EVENT&#45;&gt;RETRY -->
<g id="edge7" class="edge">
<title>EVENT&#45;&gt;RETRY</title>
<path fill="none" stroke="black" d="M1662.73,-488.36C1744.94,-499.6 1929.49,-526.32 1989.5,-547.5 2004.87,-552.93 2020.78,-561.03 2034.46,-568.91"/>
<polygon fill="black" stroke="black" points="2032.31,-571.7 2042.69,-573.79 2035.88,-565.68 2032.31,-571.7"/>
<text xml:space="preserve" text-anchor="middle" x="1848.5" y="-550.7" font-family="Times New Roman,serif" font-size="14.00">No ACK → wait 100ms</text>
</g>
<!-- PROCESS_EVENT -->
<g id="node13" class="node">
<title>PROCESS_EVENT</title>
<path fill="pink" stroke="black" d="M2108.25,-331C2108.25,-331 2037.5,-331 2037.5,-331 2031.5,-331 2025.5,-325 2025.5,-319 2025.5,-319 2025.5,-307 2025.5,-307 2025.5,-301 2031.5,-295 2037.5,-295 2037.5,-295 2108.25,-295 2108.25,-295 2114.25,-295 2120.25,-301 2120.25,-307 2120.25,-307 2120.25,-319 2120.25,-319 2120.25,-325 2114.25,-331 2108.25,-331"/>
<text xml:space="preserve" text-anchor="middle" x="2072.88" y="-314.75" font-family="Times New Roman,serif" font-size="10.00">Processing EVENT</text>
<text xml:space="preserve" text-anchor="middle" x="2072.88" y="-303.5" font-family="Times New Roman,serif" font-size="10.00">Send ACK</text>
</g>
<!-- EVENT&#45;&gt;PROCESS_EVENT -->
<g id="edge24" class="edge">
<title>EVENT&#45;&gt;PROCESS_EVENT</title>
<path fill="none" stroke="red" stroke-width="2" d="M1662.96,-475.54C1756.91,-458.17 1982.43,-416.18 1989.5,-412 2017.85,-395.24 2040.85,-364.98 2055.27,-342.31"/>
<polygon fill="red" stroke="red" stroke-width="2" points="2058.22,-344.21 2060.44,-333.85 2052.24,-340.56 2058.22,-344.21"/>
<text xml:space="preserve" text-anchor="middle" x="1848.5" y="-470.15" font-family="Times New Roman,serif" font-size="14.00">EVENT (reliable)</text>
</g>
<!-- RETRY&#45;&gt;EVENT -->
<g id="edge8" class="edge">
<title>RETRY&#45;&gt;EVENT</title>
<path fill="none" stroke="black" d="M2035.65,-599.29C1967.68,-609.34 1817.93,-623.05 1707.5,-572 1699.74,-568.41 1668.43,-534.49 1646.07,-509.59"/>
<polygon fill="black" stroke="black" points="1648.87,-507.47 1639.6,-502.35 1643.65,-512.14 1648.87,-507.47"/>
<text xml:space="preserve" text-anchor="middle" x="1848.5" y="-612.05" font-family="Times New Roman,serif" font-size="14.00">Resend EVENT (repeat up to 3 times, 100ms each)</text>
</g>
<!-- INIT_RCVD -->
<g id="node10" class="node">
<title>INIT_RCVD</title>
<path fill="lightyellow" stroke="black" d="M1075.5,-331C1075.5,-331 1023.5,-331 1023.5,-331 1017.5,-331 1011.5,-325 1011.5,-319 1011.5,-319 1011.5,-307 1011.5,-307 1011.5,-301 1017.5,-295 1023.5,-295 1023.5,-295 1075.5,-295 1075.5,-295 1081.5,-295 1087.5,-301 1087.5,-307 1087.5,-307 1087.5,-319 1087.5,-319 1087.5,-325 1081.5,-331 1075.5,-331"/>
<text xml:space="preserve" text-anchor="middle" x="1049.5" y="-309.12" font-family="Times New Roman,serif" font-size="10.00">INIT Received</text>
</g>
<!-- LISTEN&#45;&gt;INIT_RCVD -->
<g id="edge13" class="edge">
<title>LISTEN&#45;&gt;INIT_RCVD</title>
<path fill="none" stroke="black" d="M593.34,-313C676.53,-313 900.2,-313 999.66,-313"/>
<polygon fill="black" stroke="black" points="999.65,-316.5 1009.65,-313 999.65,-309.5 999.65,-316.5"/>
<text xml:space="preserve" text-anchor="middle" x="834.12" y="-316.2" font-family="Times New Roman,serif" font-size="14.00">Receive INIT</text>
</g>
<!-- INIT_ACK -->
<g id="node11" class="node">
<title>INIT_ACK</title>
<path fill="aliceblue" stroke="black" d="M1386.25,-331C1386.25,-331 1327.5,-331 1327.5,-331 1321.5,-331 1315.5,-325 1315.5,-319 1315.5,-319 1315.5,-307 1315.5,-307 1315.5,-301 1321.5,-295 1327.5,-295 1327.5,-295 1386.25,-295 1386.25,-295 1392.25,-295 1398.25,-301 1398.25,-307 1398.25,-307 1398.25,-319 1398.25,-319 1398.25,-325 1392.25,-331 1386.25,-331"/>
<text xml:space="preserve" text-anchor="middle" x="1356.88" y="-309.12" font-family="Times New Roman,serif" font-size="10.00">INIT_ACK Sent</text>
</g>
<!-- INIT_RCVD&#45;&gt;INIT_ACK -->
<g id="edge14" class="edge">
<title>INIT_RCVD&#45;&gt;INIT_ACK</title>
<path fill="none" stroke="black" d="M1087.97,-309.02C1099.37,-307.98 1111.93,-307.01 1123.5,-306.5 1192.76,-303.42 1210.23,-303.56 1279.5,-306.5 1287.36,-306.83 1295.67,-307.36 1303.79,-307.97"/>
<polygon fill="black" stroke="black" points="1303.33,-311.45 1313.58,-308.76 1303.9,-304.47 1303.33,-311.45"/>
<text xml:space="preserve" text-anchor="middle" x="1201.5" y="-309.7" font-family="Times New Roman,serif" font-size="14.00">Send INIT_ACK</text>
</g>
<!-- INIT_ACK&#45;&gt;SYNC -->
<g id="edge21" class="edge">
<title>INIT_ACK&#45;&gt;SYNC</title>
<path fill="none" stroke="purple" d="M1321.25,-331.25C1265.83,-360.47 1157.18,-417.75 1095.71,-450.17"/>
<polygon fill="purple" stroke="purple" points="1094.08,-447.07 1086.87,-454.83 1097.35,-453.26 1094.08,-447.07"/>
<text xml:space="preserve" text-anchor="middle" x="1201.5" y="-438.29" font-family="Times New Roman,serif" font-size="14.00">INIT_ACK + First Snapshot</text>
</g>
<!-- INIT_ACK&#45;&gt;BROADCAST -->
<g id="edge15" class="edge">
<title>INIT_ACK&#45;&gt;BROADCAST</title>
<path fill="none" stroke="black" d="M1367.7,-294.85C1380.1,-274.1 1403.55,-241.24 1434.25,-227.5 1473.63,-209.88 1522.51,-212.37 1560.32,-218.81"/>
<polygon fill="black" stroke="black" points="1559.21,-222.17 1569.68,-220.55 1560.48,-215.29 1559.21,-222.17"/>
<text xml:space="preserve" text-anchor="middle" x="1484.88" y="-230.7" font-family="Times New Roman,serif" font-size="14.00">Start Sync</text>
</g>
<!-- BROADCAST&#45;&gt;PLAY -->
<g id="edge23" class="edge">
<title>BROADCAST&#45;&gt;PLAY</title>
<path fill="none" stroke="orange" stroke-width="1.5" stroke-dasharray="5,2" d="M1571.03,-242.83C1529.93,-252.44 1472.23,-271.52 1434.25,-307.5 1428.89,-312.58 1391.07,-398.01 1370.74,-444.47"/>
<polygon fill="orange" stroke="orange" stroke-width="1.5" points="1367.56,-442.99 1366.77,-453.56 1373.98,-445.79 1367.56,-442.99"/>
<text xml:space="preserve" text-anchor="middle" x="1484.88" y="-310.7" font-family="Times New Roman,serif" font-size="14.00">Snapshot Stream</text>
</g>
<!-- BROADCAST&#45;&gt;PROCESS_EVENT -->
<g id="edge16" class="edge">
<title>BROADCAST&#45;&gt;PROCESS_EVENT</title>
<path fill="none" stroke="black" d="M1671.81,-220.89C1744.61,-204.19 1883.65,-182.5 1989.5,-227.5 2017.05,-239.21 2039.85,-265.15 2054.43,-285.41"/>
<polygon fill="black" stroke="black" points="2051.49,-287.32 2060.05,-293.56 2057.25,-283.34 2051.49,-287.32"/>
<text xml:space="preserve" text-anchor="middle" x="1848.5" y="-230.7" font-family="Times New Roman,serif" font-size="14.00">EVENT Received</text>
</g>
<!-- LOG -->
<g id="node14" class="node">
<title>LOG</title>
<path fill="lightgray" stroke="black" d="M2105.62,-132C2105.62,-132 2040.12,-132 2040.12,-132 2034.12,-132 2028.12,-126 2028.12,-120 2028.12,-120 2028.12,-108 2028.12,-108 2028.12,-102 2034.12,-96 2040.12,-96 2040.12,-96 2105.62,-96 2105.62,-96 2111.62,-96 2117.62,-102 2117.62,-108 2117.62,-108 2117.62,-120 2117.62,-120 2117.62,-126 2111.62,-132 2105.62,-132"/>
<text xml:space="preserve" text-anchor="middle" x="2072.88" y="-110.12" font-family="Times New Roman,serif" font-size="10.00">Logging / Metrics</text>
</g>
<!-- BROADCAST&#45;&gt;LOG -->
<g id="edge18" class="edge">
<title>BROADCAST&#45;&gt;LOG</title>
<path fill="none" stroke="black" d="M1625.48,-215.77C1632.46,-179.85 1653.53,-100.55 1707.5,-67.5 1814.39,-2.06 1868.28,-35.65 1989.5,-67.5 2006.53,-71.98 2023.75,-80.86 2038.01,-89.68"/>
<polygon fill="black" stroke="black" points="2035.8,-92.42 2046.1,-94.9 2039.6,-86.54 2035.8,-92.42"/>
<text xml:space="preserve" text-anchor="middle" x="1848.5" y="-70.7" font-family="Times New Roman,serif" font-size="14.00">Snapshot Stats</text>
</g>
<!-- PROCESS_EVENT&#45;&gt;EVENT -->
<g id="edge25" class="edge">
<title>PROCESS_EVENT&#45;&gt;EVENT</title>
<path fill="none" stroke="green" stroke-width="1.5" d="M2025.27,-322.64C2013.59,-325.05 2001.09,-327.62 1989.5,-330 1864.2,-355.7 1818.36,-323.69 1707.5,-387.5 1679.23,-403.77 1655.41,-432.83 1640.24,-454.64"/>
<polygon fill="green" stroke="green" stroke-width="1.5" points="1637.44,-452.53 1634.78,-462.78 1643.25,-456.43 1637.44,-452.53"/>
<text xml:space="preserve" text-anchor="middle" x="1848.5" y="-390.7" font-family="Times New Roman,serif" font-size="14.00">ACK</text>
</g>
<!-- PROCESS_EVENT&#45;&gt;BROADCAST -->
<g id="edge17" class="edge">
<title>PROCESS_EVENT&#45;&gt;BROADCAST</title>
<path fill="none" stroke="black" d="M2025.17,-305.84C1955.74,-295.04 1821.25,-273.55 1707.5,-252 1699.55,-250.49 1691.2,-248.83 1682.97,-247.14"/>
<polygon fill="black" stroke="black" points="1683.85,-243.75 1673.35,-245.14 1682.43,-250.6 1683.85,-243.75"/>
<text xml:space="preserve" text-anchor="middle" x="1848.5" y="-302.34" font-family="Times New Roman,serif" font-size="14.00">ACK &amp; Apply Update</text>
</g>
<!-- LOG&#45;&gt;BROADCAST -->
<g id="edge19" class="edge">
<title>LOG&#45;&gt;BROADCAST</title>
<path fill="none" stroke="black" d="M2027.68,-114.06C1957.2,-115.62 1816.24,-124.82 1707.5,-170.5 1686.35,-179.39 1665.66,-194.66 1649.99,-208"/>
<polygon fill="black" stroke="black" points="1647.71,-205.34 1642.51,-214.57 1652.33,-210.59 1647.71,-205.34"/>
<text xml:space="preserve" text-anchor="middle" x="1848.5" y="-173.7" font-family="Times New Roman,serif" font-size="14.00">Back to Broadcast</text>
</g>
</g>
</svg>
